<?xml version="1.0" encoding="utf-8"?>
<!-- Generator: Adobe Illustrator 16.0.0, SVG Export Plug-In . SVG Version: 6.00 Build 0)  -->
<!DOCTYPE svg PUBLIC "-//W3C//DTD SVG 1.1//EN" "http://www.w3.org/Graphics/SVG/1.1/DTD/svg11.dtd">
<svg version="1.1"
	 id="svg5846" xmlns:dc="http://purl.org/dc/elements/1.1/" xmlns:cc="http://creativecommons.org/ns#" xmlns:rdf="http://www.w3.org/1999/02/22-rdf-syntax-ns#" xmlns:svg="http://www.w3.org/2000/svg"
	 xmlns="http://www.w3.org/2000/svg" xmlns:xlink="http://www.w3.org/1999/xlink" x="0px" y="0px" width="529.943px"
	 height="530.689px" viewBox="0 0 529.943 530.689" enable-background="new 0 0 529.943 530.689" xml:space="preserve">
<g id="layer1">
	<path id="rect3164-7-2" display="none" fill="#9BA19D" d="M59.693,1.09c-15.195,0-31.505,6.355-42.25,17.1
		c-10.745,10.745-17.1,27.054-17.1,42.25v407.274c0,16.314,5.564,34.314,17.1,45.85c11.536,11.537,29.536,17.125,45.85,17.125
		h233.325h233.326V64.04c0-16.314-5.564-34.314-17.101-45.85c-11.536-11.536-29.536-17.1-45.85-17.1H59.693L59.693,1.09z"/>
	<path id="path3008-71-88-4-4-0" fill="#FE8A18" d="M113.56,473.314c-16.754,0-30.916-5.785-42.484-17.354
		s-17.353-25.729-17.353-42.484V114.292c0-16.754,5.784-30.915,17.353-42.484c11.568-11.568,25.73-17.353,42.484-17.353h359.027
		v83.772H143.479v83.771h329.108v83.772H143.479v83.771h329.108v83.772H113.56"/>
	<path id="rect3164-7-2_1_" display="none" fill="#9BA19D" d="M59.692,1.09c-15.195,0-31.505,6.355-42.25,17.1
		c-10.745,10.745-17.1,27.054-17.1,42.25v407.274c0,16.314,5.564,34.314,17.1,45.85c11.536,11.537,29.537,17.125,45.85,17.125
		h233.325h233.325V64.04c0-16.314-5.564-34.314-17.101-45.85c-11.536-11.536-29.536-17.1-45.85-17.1H59.692L59.692,1.09z
		 M59.718,26.265h410.851c18.937,0,34.199,15.238,34.199,34.175v445.05H59.718c-18.938,0-34.2-15.238-34.2-34.176V60.44
		C25.518,41.502,40.78,26.265,59.718,26.265z"/>
</g>
</svg>
